<svg xmlns="http://www.w3.org/2000/svg" width="31" height="17" viewBox="0 0 31 17"><g><g opacity=".5"><path fill="#45413e" d="M30.007 9.228c-.222.316-5.523 7.741-14.777 7.741C5.977 16.97.676 9.543.454 9.228a1.1 1.1 0 0 1 0-1.269C.676 7.643 5.977.22 15.23.22c9.254 0 14.555 7.424 14.777 7.74.268.384.268.886 0 1.269zm-2.462-.632C26.118 6.918 21.73 2.488 15.23 2.488c-6.524 0-10.892 4.424-12.315 6.104 1.428 1.677 5.816 6.107 12.315 6.107 6.525 0 10.893-4.424 12.315-6.103zm-7.91-3.19a5.125 5.125 0 0 1 1.051 3.931c-.206 1.403-.968 2.645-2.144 3.496a5.608 5.608 0 0 1-3.308 1.065c-1.75 0-3.357-.771-4.408-2.116C9 9.444 9.49 6.112 11.917 4.354a5.612 5.612 0 0 1 3.31-1.065c1.75 0 3.357.771 4.407 2.116zM18.22 6.427c-.713-.912-1.804-1.436-2.993-1.436-.816 0-1.593.25-2.246.723C11.333 6.91 11 9.171 12.24 10.758c.714.913 1.805 1.437 2.994 1.437.815 0 1.592-.25 2.245-.723a3.557 3.557 0 0 0 1.456-2.373 3.481 3.481 0 0 0-.714-2.67zm-.899.156c.218.212.345.504.345.802 0 .298-.127.594-.345.803a1.217 1.217 0 0 1-1.669 0 1.129 1.129 0 0 1-.345-.803c0-.298.128-.59.345-.802.221-.21.525-.333.835-.333.31 0 .613.122.834.333z"/></g></g></svg>