<svg xmlns="http://www.w3.org/2000/svg" width="22" height="23" viewBox="0 0 22 23"><g><g opacity=".3"><path d="M21.805 9.913v1.05c0 .283-.202.512-.45.512h-3.25v3.694c0 .282-.201.51-.448.51h-.926c-.25 0-.45-.228-.45-.51v-3.694h-3.25c-.248 0-.45-.229-.45-.51V9.913c0-.282.202-.512.45-.512h3.25V5.71c0-.281.2-.51.45-.51h.926c.247 0 .448.229.448.51V9.4h3.25c.248 0 .45.23.45.512zm-9.183 7.364c0 2.188-1.465 4.084-3.731 4.831a7.47 7.47 0 0 1-2.338.36 9.5 9.5 0 0 1-2.624-.356c-1.594-.458-2.773-1.323-3.322-2.44a3.447 3.447 0 0 1-.357-1.53c0-.548.116-1.104.344-1.655.873-2.114 3.174-3.536 5.723-3.536h.074a2.834 2.834 0 0 1-.309-1.294c0-.225.027-.454.079-.686-2.674-.07-4.675-2.294-4.675-5.229 0-2.071 1.457-4.088 3.541-4.905A5.186 5.186 0 0 1 6.912.468h5.718c.195 0 .366.144.427.354a.547.547 0 0 1-.164.57l-1.279 1.053a.41.41 0 0 1-.263.097h-.458c.59.805.937 1.951.937 3.242 0 1.423-.634 2.77-1.786 3.795-.89.788-.926 1.004-.926 1.455.01.248.632 1.054 1.315 1.605 1.595 1.282 2.189 2.538 2.19 4.638zm-6.08 3.131c2.462 0 3.71-.964 3.71-2.866 0-.18-.019-.367-.058-.553-.166-.74-.761-1.2-1.663-1.898-.124-.096-.253-.196-.386-.301a3.872 3.872 0 0 0-1.226-.212h-.053c-1.946 0-3.654 1.34-3.654 2.867 0 1.662 1.462 2.963 3.33 2.963zM4.437 5.664c.22 1.922 1.456 3.583 2.694 3.627h.021c.466 0 .858-.21 1.163-.605.477-.617.688-1.63.563-2.708-.222-1.925-1.431-3.525-2.695-3.567l-.05-.001c-.448 0-.847.208-1.15.603-.471.61-.67 1.577-.546 2.651z"/></g></g></svg>