<svg xmlns="http://www.w3.org/2000/svg" width="21" height="24" viewBox="0 0 21 24"><g><g opacity=".3"><path d="M11.067.593C4.011.593.453 5.093.453 8.847c0 2.272.967 4.294 3.041 5.046.34.125.645.004.744-.33.068-.231.23-.816.303-1.06.1-.332.06-.447-.214-.737-.598-.627-.98-1.44-.98-2.59 0-3.34 2.808-6.328 7.312-6.328 3.988 0 6.179 2.168 6.179 5.063 0 3.81-1.895 7.025-4.708 7.025-1.554 0-2.716-1.143-2.344-2.545.446-1.674 1.31-3.48 1.31-4.689 0-1.081-.652-1.983-2.002-1.983-1.588 0-2.865 1.462-2.865 3.42 0 1.247.474 2.09.474 2.09l-1.91 7.2c-.567 2.136-.085 4.756-.044 5.02.024.156.25.194.353.076.146-.17 2.038-2.248 2.68-4.324.183-.587 1.045-3.631 1.045-3.631.517.876 2.025 1.646 3.629 1.646 4.773 0 8.012-3.871 8.012-9.054 0-3.919-3.73-7.569-9.4-7.569z"/></g></g></svg>