<svg xmlns="http://www.w3.org/2000/svg" width="23" height="23" viewBox="0 0 23 23"><g><g opacity=".3"><path d="M22.95 3.044a8.225 8.225 0 0 1-2.676.863c.963-.68 1.7-1.755 2.049-3.038a8.554 8.554 0 0 1-2.958 1.333c-.85-1.067-2.06-1.734-3.4-1.734-2.573 0-4.658 2.458-4.658 5.491 0 .43.04.849.12 1.25-3.871-.227-7.304-2.414-9.602-5.736a6.224 6.224 0 0 0-.63 2.761c0 1.905.822 3.586 2.072 4.57a4.118 4.118 0 0 1-2.11-.687v.07c0 2.66 1.605 4.879 3.736 5.384a4.03 4.03 0 0 1-2.103.093c.593 2.182 2.313 3.77 4.35 3.814-1.593 1.473-3.602 2.35-5.784 2.35-.376 0-.747-.026-1.112-.076 2.062 1.558 4.51 2.467 7.141 2.467 8.569 0 13.254-8.367 13.254-15.624 0-.238-.004-.475-.013-.71.91-.773 1.7-1.741 2.324-2.841z"/></g></g></svg>